# xmcd CD database file
#
# Track frame offsets:
#	150
#	18362
#	31723
#	44283
#	52672
#	74719
#	90939
#	107910
#	124211
#	140698
#	154990
#	162840
#	178521
#	202298
#	213548
#	225763
#	241842
#	256892
#	270799
#	280648
#	292228
#	307305
#
# Disc length: 4383 seconds
#
# Revision: 0
# Processed by: cddbd v1.5.2PL0 Copyright (c) Steve Scherf et al.
# Submitted via: CDex 1.70beta2
#
DISCID=38111d16
DTITLE=James Booker - Classified
DYEAR=2013
DGENRE=Blues
TTITLE0=Classified
TTITLE1=If You're Lonely
TTITLE2=Warsaw Concerto
TTITLE3=Lawdy Miss Clawdy
TTITLE4=Meddley: Tico Tico - Pappa Was a Rascal - So Swell When You're Well
TTITLE5=All Around The World
TTITLE6=Angel Eyes
TTITLE7=Lonely Avenue
TTITLE8=Professor Longhair Meddley: Tipitina - Bald Head
TTITLE9=King of the Road
TTITLE10=Theme from The Godfather
TTITLE11=Lawdy Miss Clawdy
TTITLE12=I'm Not Sayin'
TTITLE13=Hound Dog
TTITLE14=All These Things
TTITLE15=Yes Sir, That's My Baby
TTITLE16=Baby Face
TTITLE17=If You're Lonely
TTITLE18=Madame X
TTITLE19=One For the Highway
TTITLE20=Three Keys
TTITLE21=Amen
EXTD=YEAR: 2013
EXTT0=
EXTT1=
EXTT2=
EXTT3=
EXTT4=
EXTT5=
EXTT6=
EXTT7=
EXTT8=
EXTT9=
EXTT10=
EXTT11=
EXTT12=
EXTT13=
EXTT14=
EXTT15=
EXTT16=
EXTT17=
EXTT18=
EXTT19=
EXTT20=
EXTT21=
PLAYORDER=
